# xmcd
#
# Track frame offsets: 
#        150
#        21477
#        35713
#        52143
#        71064
#        89345
#        112207
#        131498
#        149805
#        171394
#
# Disc length: 2518 seconds
#
# Revision: 0
# Processed by: cddbd v1.5.2PL0 Copyright (c) Steve Scherf et al.
# Submitted via: ExactAudioCopy v0.99pb5
#
DISCID=a609d40a
DTITLE=Tamara and Lucky Peterson - Darling Forever
DYEAR=2009
DGENRE=Blues
TTITLE0=You Gotta Love Me Baby (Take My Pain Away)
TTITLE1=Lost the Right
TTITLE2=Smile
TTITLE3=I Don't Like You But I Love You
TTITLE4=Talkin' 'Bout Love
TTITLE5=Free
TTITLE6=Darling Forever
TTITLE7=What You Wanna Do About It
TTITLE8=Sometimes
TTITLE9=I Believe
EXTD=
EXTT0=
EXTT1=
EXTT2=
EXTT3=
EXTT4=
EXTT5=
EXTT6=
EXTT7=
EXTT8=
EXTT9=
PLAYORDER=
